# xmcd CD database file
#
# Track frame offsets:
#	150
#	12559
#	26887
#	40187
#	54530
#	68012
#	79297
#	93070
#	108275
#	120570
#	133340
#	148665
#	164065
#	177155
#	192207
#	207145
#	221572
#	234687
#	248080
#	261787
#	276997
#	289792
#	304460
#
# Disc length: 4226 seconds
#
# Revision: 0
# Processed by: cddbd v1.5.2PL0 Copyright (c) Steve Scherf et al.
# Submitted via: CDex 1.79
#
DISCID=5e108017
DTITLE=Duke Ellington - Vintage Hit Singles Collection Disc Three
DYEAR=2000
DGENRE=Jazz
TTITLE0=All God's Chillun Got Rhythm (Instrumental)
TTITLE1=Harmony In Harlem
TTITLE2=If You Were In My Place (What Would You Do?)
TTITLE3=I Let A Song Go Out Of My Heart
TTITLE4=The Gal From Joe's
TTITLE5=The Lambeth Walk
TTITLE6=Prelude to a Kiss
TTITLE7=You, You Darlin'
TTITLE8=Ko-Ko
TTITLE9=At A Dixie Roadside Diner
TTITLE10=Sepia Panorama
TTITLE11=Flamingo
TTITLE12=Take The "A" Train
TTITLE13=I Got It Bad (And That Ain't Good)
TTITLE14=Don't Get Around Much Anymore (Never No Lament)
TTITLE15=Perdido
TTITLE16=Bojangles
TTITLE17=A Slip Of The Lip
TTITLE18=Sentimental Lady
TTITLE19=Do Nothin' Till You Hear From Me (Concerto for Cootie)
TTITLE20=Main Stem
TTITLE21=I'm Beginning to See The Light
TTITLE22=Come To Baby, Do!
EXTD=YEAR: 2000
EXTT0=
EXTT1=
EXTT2=
EXTT3=
EXTT4=
EXTT5=
EXTT6=
EXTT7=
EXTT8=
EXTT9=
EXTT10=
EXTT11=
EXTT12=
EXTT13=
EXTT14=
EXTT15=
EXTT16=
EXTT17=
EXTT18=
EXTT19=
EXTT20=
EXTT21=
EXTT22=
PLAYORDER=
